<svg xmlns="http://www.w3.org/2000/svg" shape-rendering="geometricPrecision" text-rendering="geometricPrecision" image-rendering="optimizeQuality" fill-rule="evenodd" clip-rule="evenodd" viewBox="0 0 512 420.165"><path fill-rule="nonzero" d="M74.316 0h363.368C478.548 0 512 33.458 512 74.316v271.533c0 40.815-33.502 74.316-74.316 74.316H74.316C33.439 420.165 0 386.689 0 345.849V74.316C0 33.408 33.408 0 74.316 0zm97.575 140.179v102.46h15.512c5.536 0 9.319-.693 11.363-2.08 2.037-1.381 3.053-4.546 3.053-9.5v-90.88h43.694v76.681c0 12.379-.799 22.355-2.403 29.928-3.195 15.079-11.641 26.052-26.869 30.145-15.506 4.186-43.384 4.217-58.878 0-15.134-4.111-23.593-15.147-26.757-30.145-1.604-7.573-2.403-17.549-2.403-29.928v-76.681h43.688zm139.163 77.115v59.423H267.36V140.179h43.694v55.707c.601 0 21.785-50.047 24.466-55.707h47.187l-32.77 67.07 33.86 69.468H336.61c-2.78-6.051-24.757-59.423-25.556-59.423zm126.63-181.365H74.316c-21.079 0-38.387 17.307-38.387 38.387v271.533c0 21.104 17.252 38.387 38.387 38.387h363.368c21.153 0 38.387-17.233 38.387-38.387V74.316c0-21.092-17.289-38.387-38.387-38.387z"/></svg>